<?xml version="1.0" encoding="utf-8"?>
<!-- Generator: Adobe Illustrator 18.0.0, SVG Export Plug-In . SVG Version: 6.00 Build 0)  -->
<!DOCTYPE svg PUBLIC "-//W3C//DTD SVG 1.1//EN" "http://www.w3.org/Graphics/SVG/1.1/DTD/svg11.dtd">
<svg version="1.1" id="Layer_1" xmlns="http://www.w3.org/2000/svg" xmlns:xlink="http://www.w3.org/1999/xlink" x="0px" y="0px"
	 viewBox="0 0 93.8 18.3" enable-background="new 0 0 93.8 18.3" xml:space="preserve">
<path fill-rule="evenodd" clip-rule="evenodd" d="M45.6,0c0,0-26.5,0.7-33.8,4.3C4.5,7.8,0,17.4,0,17.4l4.5-1l1.9,1.9l8.4-2.7
	l1.7,1.6l3.4-1.8l1.8,0.9l7.4-2.3l1.3,1.2l6-2.6l1.4,1.4l3-2.1l1.5,1.6l3.2-1.4c2,1.5,1,1.5,3,0l3.2,1.4l1.5-1.6l3,2.1l1.4-1.4
	l6,2.6l1.3-1.2l7.4,2.3l1.8-0.9l3.4,1.8l1.7-1.6l8.4,2.7l1.9-1.9l4.5,1c0,0-4.5-9.6-11.8-13.2C74.6,0.7,48.1,0,48.1,0
	C46.9,8.7,47.2,8.6,45.6,0z"/>
</svg>
