<?xml version="1.0" encoding="utf-8"?>
<!-- Generator: Adobe Illustrator 17.0.0, SVG Export Plug-In . SVG Version: 6.00 Build 0)  -->
<!DOCTYPE svg PUBLIC "-//W3C//DTD SVG 1.1//EN" "http://www.w3.org/Graphics/SVG/1.1/DTD/svg11.dtd">
<svg version="1.1" id="Layer_1" xmlns="http://www.w3.org/2000/svg" xmlns:xlink="http://www.w3.org/1999/xlink" x="0px" y="0px"
	 width="24.028px" height="69.397px" viewBox="0 0 24.028 69.397" enable-background="new 0 0 24.028 69.397" xml:space="preserve">
<path d="M23.673,34.448c-0.007-1.813,0.054-3.596,0.155-5.321c0.078-1.726,0.188-3.395,0.197-4.977
	c0.013-1.582-0.041-3.078-0.08-4.458c-0.107-2.762-0.271-5.063-0.435-6.675c-0.058-0.579,0.03-2.382-0.397-2.758
	c-0.255-0.224-1.597,0.217-2.137,0.408c-0.002-0.054-0.003-0.102-0.005-0.163c0.004-0.237-0.031-0.526-0.08-0.867
	C20.857,9.295,20.799,8.904,20.7,8.47c-0.205-0.861-0.49-1.928-1.097-3.054c-0.599-1.118-1.474-2.335-2.759-3.339
	c-1.299-1.007-2.927-1.724-4.894-1.985C11.458,0.043,11.148,0.01,10.563,0c-0.484,0.025-0.977,0.03-1.468,0.125
	C8.107,0.249,7.125,0.56,6.19,0.992C4.322,1.87,2.663,3.308,1.523,5.118C0.959,6.027,0.552,7.031,0.282,8.064
	c-0.243,1.026-0.316,2.183-0.268,3.137c0.133,2.166,0.883,4.117,1.99,5.817c1.137,1.674,2.645,3.05,4.387,3.993
	c0.887,0.442,1.776,0.818,2.771,1.004c0.513,0.122,0.931,0.146,1.374,0.198c0.534,0.021,0.963,0.008,1.44-0.017
	c1.856-0.184,3.558-0.873,4.84-1.856c1.297-0.977,2.177-2.189,2.771-3.309c0.608-1.123,0.893-2.188,1.101-3.047
	c0.1-0.433,0.158-0.824,0.196-1.169c0.051-0.342,0.088-0.632,0.085-0.865c0.007-0.187,0.012-0.328,0.016-0.442l0.063,0.196
	l1.892-0.607c-0.054,0.432-0.129,1.079-0.213,1.921c-0.163,1.611-0.327,3.912-0.434,6.674c-0.039,1.38-0.093,2.876-0.08,4.458
	c0.01,1.582,0.119,3.251,0.197,4.977c0.102,1.726,0.162,3.509,0.155,5.321c0.006,1.813-0.082,3.654-0.16,5.494
	c-0.094,1.842-0.151,3.682-0.177,5.494c-0.02,1.813,0.007,3.596,0.088,5.322c0.08,1.725,0.117,3.395,0.257,4.976
	c0.139,1.582,0.15,3.078,0.199,4.457c0.083,2.762,0.151,5.063,0.199,6.674c0.031,1.611,0.049,2.531,0.049,2.531h0.199
	c0,0,0.018-0.92,0.049-2.531c0.048-1.611,0.116-3.912,0.199-6.674c0.049-1.379,0.06-2.875,0.199-4.457
	c0.14-1.582,0.177-3.252,0.257-4.976c0.081-1.727,0.107-3.51,0.088-5.322c-0.025-1.813-0.083-3.652-0.177-5.494
	C23.755,38.102,23.668,36.261,23.673,34.448z M20.795,11.228c-0.001,0.007-0.017,0.253-0.047,0.713
	c-0.005,0.236-0.051,0.517-0.109,0.844c-0.038,0.332-0.157,0.699-0.29,1.108c-0.268,0.812-0.724,1.768-1.479,2.669
	c-0.742,0.907-1.741,1.768-2.936,2.461c-1.209,0.67-2.599,1.209-4.153,1.433c-0.374,0.05-0.816,0.091-1.16,0.107
	c-0.435-0.004-0.911,0.028-1.285-0.025c-0.796-0.031-1.675-0.229-2.507-0.51c-0.84-0.292-1.654-0.726-2.398-1.283
	c-0.743-0.563-1.376-1.281-1.917-2.063c-0.524-0.799-0.9-1.69-1.157-2.612c-0.221-0.924-0.28-1.923-0.247-2.813
	c0.096-1.041,0.281-1.876,0.607-2.758c0.338-0.858,0.761-1.668,1.28-2.4c0.538-0.718,1.139-1.376,1.823-1.92
	C5.514,3.653,6.248,3.196,7.03,2.886c1.576-0.639,3.15-0.845,4.779-0.714c1.441,0.147,2.905,0.657,4.098,1.305
	C17.113,4.143,18.118,5,18.854,5.907c0.756,0.898,1.211,1.854,1.481,2.663c0.134,0.407,0.254,0.775,0.294,1.108
	c0.062,0.329,0.108,0.61,0.113,0.843c0.006,0.085,0.011,0.155,0.017,0.226c-0.003,0.001-0.018,0.007-0.018,0.007l0.024,0.075
	C20.784,11.087,20.794,11.223,20.795,11.228z"/>
</svg>
