<?xml version="1.0" encoding="utf-8"?>
<!-- Generator: Adobe Illustrator 18.0.0, SVG Export Plug-In . SVG Version: 6.00 Build 0)  -->
<!DOCTYPE svg PUBLIC "-//W3C//DTD SVG 1.1//EN" "http://www.w3.org/Graphics/SVG/1.1/DTD/svg11.dtd">
<svg version="1.1" id="Layer_1" xmlns="http://www.w3.org/2000/svg" xmlns:xlink="http://www.w3.org/1999/xlink" x="0px" y="0px"
	 viewBox="0 0 98.9 30.1" enable-background="new 0 0 98.9 30.1" xml:space="preserve">
<g>
	<path fill-rule="evenodd" clip-rule="evenodd" d="M36.2,0c-3.6,0-8.5,4.2-8.5,4.2s-5.8,1.1-10.9,1.6c-5.1,0.5-6.5,6.5-6.5,6.5
		S7.5,14,3.7,15.6c-3.8,1.6-5.3,7.5-1.3,10.9c4,3.5,10,4.9,13.8,1.8c3.8-3.1,6.2-9.3,6.2-9.3s8.9,2.7,12.4-0.5
		c3.5-3.3,2.7-6.5,7.8-7.3c5.1-0.7,6.9-8.2,6.9-8.2C45.4,2.3,40.1,0,36.2,0z"/>
	<path fill-rule="evenodd" clip-rule="evenodd" d="M62.7,0c3.6,0,8.5,4.2,8.5,4.2s5.8,1.1,10.9,1.6c5.1,0.5,6.5,6.5,6.5,6.5
		s2.7,1.6,6.5,3.3c3.8,1.6,5.3,7.5,1.3,10.9c-4,3.5-10,4.9-13.8,1.8c-3.8-3.1-6.2-9.3-6.2-9.3s-8.9,2.7-12.4-0.5
		c-3.5-3.3-2.7-6.5-7.8-7.3c-5.1-0.7-6.9-8.2-6.9-8.2C53.6,2.3,58.8,0,62.7,0z"/>
</g>
</svg>
