<?xml version="1.0" encoding="utf-8"?>
<!-- Generator: Adobe Illustrator 18.0.0, SVG Export Plug-In . SVG Version: 6.00 Build 0)  -->
<!DOCTYPE svg PUBLIC "-//W3C//DTD SVG 1.1//EN" "http://www.w3.org/Graphics/SVG/1.1/DTD/svg11.dtd">
<svg version="1.1" id="Layer_1" xmlns="http://www.w3.org/2000/svg" xmlns:xlink="http://www.w3.org/1999/xlink" x="0px" y="0px"
	 viewBox="0 0 77.6 61.7" enable-background="new 0 0 77.6 61.7" xml:space="preserve">
<g>
	<path fill-rule="evenodd" clip-rule="evenodd" d="M2.2,46.5c-6.6,8.1,2.8,16,11.5,15.2C26.3,60.5,38,29.5,38.3,19.8l0.5-15.3
		c0,0-6.9-6.6-12.5-3.9c-7,3.4-1,40.3-10.1,50.9c-6.4,7.4-12.1-6.8-8-6.3C9.5,45.4,7.6,39.9,2.2,46.5z"/>
	<path fill-rule="evenodd" clip-rule="evenodd" d="M75.4,46.5c6.6,8.1-2.8,16-11.5,15.2c-12.6-1.2-24.3-32.2-24.6-41.9L38.8,4.6
		c0,0,7-6.6,12.5-3.9c7,3.4,1,40.3,10.1,50.9c6.4,7.4,12.1-6.8,8-6.3C68.1,45.4,70,39.9,75.4,46.5z"/>
</g>
</svg>
