<?xml version="1.0" encoding="utf-8"?>
<!-- Generator: Adobe Illustrator 18.0.0, SVG Export Plug-In . SVG Version: 6.00 Build 0)  -->
<!DOCTYPE svg PUBLIC "-//W3C//DTD SVG 1.1//EN" "http://www.w3.org/Graphics/SVG/1.1/DTD/svg11.dtd">
<svg version="1.1" id="Layer_1" xmlns="http://www.w3.org/2000/svg" xmlns:xlink="http://www.w3.org/1999/xlink" x="0px" y="0px"
	 viewBox="0 0 111.5 22.2" enable-background="new 0 0 111.5 22.2" xml:space="preserve">
<g>
	<path fill-rule="evenodd" clip-rule="evenodd" d="M55.8,6.3c0,0,0.4,1.9-14.2,5.7c-6,1.6-27.7,5.6-33.6,1.3
		c-3.3-2.4-4.4-6.7-0.8-9.4c1.6-1.2,4.4-0.7,4.9,0.8c0.6,1.5-0.5,2-0.5,2c3.7-1.9,0.7-7.5-5-6.4C-1,1.6-1.5,9.5,2.4,14.5
		C10.2,24.1,52.5,27.9,55.8,6.3z"/>
	<path fill-rule="evenodd" clip-rule="evenodd" d="M55.8,6.3c0,0-0.4,1.9,14.2,5.7c6,1.6,27.7,5.6,33.6,1.3c3.3-2.4,4.4-6.7,0.8-9.4
		c-1.6-1.2-4.4-0.7-4.9,0.8c-0.6,1.5,0.5,2,0.5,2c-3.7-1.9-0.7-7.5,5-6.4c7.7,1.4,8.2,9.4,4.3,14.3C101.3,24.1,59,27.9,55.8,6.3z"/>
</g>
</svg>
