<?xml version="1.0" encoding="utf-8"?>
<!-- Generator: Adobe Illustrator 18.0.0, SVG Export Plug-In . SVG Version: 6.00 Build 0)  -->
<!DOCTYPE svg PUBLIC "-//W3C//DTD SVG 1.1//EN" "http://www.w3.org/Graphics/SVG/1.1/DTD/svg11.dtd">
<svg version="1.1" id="Layer_1" xmlns="http://www.w3.org/2000/svg" xmlns:xlink="http://www.w3.org/1999/xlink" x="0px" y="0px"
	 viewBox="0 0 42.7 17.9" enable-background="new 0 0 42.7 17.9" xml:space="preserve">
<g>
	<path fill-rule="evenodd" clip-rule="evenodd" d="M21.3,0c14.6,0.2,14.7,7.1,21.4,17.9l-0.2,0l0,0L40.4,17l-0.5,0.2l-1-0.2l0.1-0.8
		L38,16.9c-0.3-0.8-0.3-0.5-1-0.2l0.1-0.6l-0.8,0.4c-0.2-0.4-0.2-0.4-0.6-0.5l-2.2-0.1c-0.4-0.1-0.8-0.2-1.1-0.3l-0.8-1.2
		c-0.3,0.7-0.2,1-0.9,0.8L30,13.9l-0.8,0.9l-0.1,0l-0.8-1.3l-0.5,0.8l-0.4-1.1l-0.7,1.1c-0.3-2.2-0.5-3-1.4-0.8l-0.6-1.9L24,12.2
		c-0.3-0.4-0.5-1.3-0.3-1.7l-0.7,0.1C21.5,7.7,21.4,8.7,21.3,0z"/>
	<path fill-rule="evenodd" clip-rule="evenodd" d="M21.3,0C6.5,0.2,6.7,7.1,0,17.9l0.2,0l0,0L2.2,17l0.5,0.2l1-0.2l-0.1-0.8l0.9,0.6
		c0.3-0.8,0.3-0.5,1-0.2l-0.1-0.6l0.8,0.4C6.6,16.1,6.6,16.1,7,16l2.2-0.1c0.4-0.1,0.8-0.2,1.1-0.3l0.8-1.2c0.3,0.7,0.2,1,0.9,0.8
		l0.6-1.3l0.8,0.9l0.1,0l0.8-1.3l0.5,0.8l0.4-1.1l0.7,1.1c0.3-2.2,0.5-3,1.4-0.8l0.6-1.9l0.7,0.8c0.3-0.4,0.5-1.3,0.3-1.7l0.7,0.1
		C21.2,7.7,21.1,8.7,21.3,0z"/>
</g>
</svg>
