<?xml version="1.0" encoding="utf-8"?>
<!-- Generator: Adobe Illustrator 17.0.0, SVG Export Plug-In . SVG Version: 6.00 Build 0)  -->
<!DOCTYPE svg PUBLIC "-//W3C//DTD SVG 1.1//EN" "http://www.w3.org/Graphics/SVG/1.1/DTD/svg11.dtd">
<svg version="1.1" id="Layer_1" xmlns="http://www.w3.org/2000/svg" xmlns:xlink="http://www.w3.org/1999/xlink" x="0px" y="0px"
	 width="81.667px" height="29.691px" viewBox="0 0 81.667 29.691" enable-background="new 0 0 81.667 29.691" xml:space="preserve">
<path fill-rule="evenodd" clip-rule="evenodd" d="M0.209,12.927c-0.253-0.523-0.278-1.363-0.063-1.91
	c0.129-0.328,0.892-0.357,1.446-0.547c0,0.475,0,0.764,0,1.018c-0.433,0.135-0.803,0.25-1.286,0.402
	c0.511,0.547,1.568-0.035,1.348,1.428C1.135,13.194,0.362,13.243,0.209,12.927z M81.457,12.927c0.254-0.523,0.278-1.363,0.064-1.91
	c-0.13-0.328-0.893-0.357-1.446-0.547c0,0.475,0,0.764,0,1.018c0.433,0.135,0.803,0.25,1.286,0.402
	c-0.512,0.547-1.568-0.035-1.348,1.428C80.532,13.194,81.305,13.243,81.457,12.927z M78.184,13.356
	c-0.029,0.002-0.057,0.006-0.085,0.008c-2.21,0.201-2.21,0.201-2.534,2.592c-1.131,8.307-6.883,13.752-14.51,13.734
	c-7.172-0.016-12.602-4.853-14.356-12.926c-0.373-1.715-0.464-3.512-0.594-5.279c-0.097-1.305-0.248-1.676-1.379-2
	c-2.514-0.717-5.266-0.717-7.786,0c-1.13,0.324-1.282,0.695-1.378,2c-0.13,1.768-0.221,3.564-0.594,5.279
	c-1.756,8.072-7.184,12.91-14.356,12.926c-7.627,0.017-13.379-5.428-14.509-13.734c-0.325-2.391-0.325-2.391-2.535-2.592
	c-0.028-0.002-0.056-0.006-0.084-0.008c-1.045-0.107-1.378-0.586-1.321-1.891c0.046-1.063,0.748-0.979,1.402-0.979
	c0.142,0,0.284-0.002,0.425,0.01c0.914,0.09,1.593-0.316,2.06-1.176c0.233-0.428,0.466-0.857,0.695-1.289
	c3.412-6.426,9.061-8.574,14.931-7.92c4.421,0.492,8.177,2.633,11.279,6.123c0.816,0.92,1.703,1.172,2.771,0.77
	C37.52,6.327,39.315,6.05,41.11,6.11c1.61,0.008,3.221,0.287,4.83,0.895c1.068,0.402,1.955,0.15,2.771-0.77
	c3.102-3.49,6.858-5.631,11.279-6.123c5.871-0.654,11.52,1.494,14.932,7.92c0.229,0.432,0.462,0.861,0.695,1.289
	c0.467,0.859,1.146,1.266,2.06,1.176c0.142-0.012,0.283-0.01,0.425-0.01c0.654,0,1.356-0.084,1.402,0.979
	C79.562,12.77,79.229,13.249,78.184,13.356z M32.651,9.784c-1.08-2.859-2.921-4.977-5.443-6.311
	c-3.993-2.109-8.125-2.65-12.366-0.98c-5.728,2.256-8.532,7.873-7.259,14.428c1.058,5.455,3.966,9.129,8.799,10.777
	c4.885,1.668,9.358,0.709,13.24-3.053c1.871-1.814,3.299-4.787,3.573-7.351c-0.177,0.125-0.303,0.215-0.535,0.379
	c-0.085,0.314-0.181,0.629-0.282,0.945c-0.043,0.15-0.09,0.299-0.146,0.449c-0.081,0.217-0.417,0.129-0.368-0.109
	c0.285-1.43,0.721-2.805,0.85-4.269c0.017-0.197,0.305-0.199,0.316,0c0.029,0.555-0.004,1.088-0.08,1.609
	c0.117-0.012,0.274-0.016,0.425-0.037C33.825,14.065,33.446,11.888,32.651,9.784z M66.825,2.493c-4.24-1.67-8.373-1.129-12.365,0.98
	c-2.522,1.334-4.363,3.451-5.443,6.311c-0.795,2.103-1.174,4.281-0.724,6.477c0.151,0.021,0.308,0.025,0.425,0.037
	c-0.075-0.522-0.109-1.055-0.08-1.609c0.012-0.199,0.3-0.197,0.316,0c0.129,1.465,0.564,2.84,0.85,4.269
	c0.048,0.238-0.287,0.326-0.368,0.109c-0.056-0.15-0.103-0.299-0.146-0.449c-0.102-0.316-0.197-0.631-0.282-0.945
	c-0.233-0.164-0.358-0.254-0.535-0.379c0.274,2.564,1.702,5.537,3.573,7.351c3.882,3.762,8.355,4.721,13.24,3.053
	c4.833-1.649,7.74-5.322,8.799-10.777C75.357,10.366,72.553,4.749,66.825,2.493z"/>
</svg>
