<?xml version="1.0" encoding="utf-8"?>
<!-- Generator: Adobe Illustrator 18.0.0, SVG Export Plug-In . SVG Version: 6.00 Build 0)  -->
<!DOCTYPE svg PUBLIC "-//W3C//DTD SVG 1.1//EN" "http://www.w3.org/Graphics/SVG/1.1/DTD/svg11.dtd">
<svg version="1.1" id="Layer_1" xmlns="http://www.w3.org/2000/svg" xmlns:xlink="http://www.w3.org/1999/xlink" x="0px" y="0px"
	 viewBox="0 0 123.8 46.2" enable-background="new 0 0 123.8 46.2" xml:space="preserve">
<g>
	<g>
		<path fill-rule="evenodd" clip-rule="evenodd" d="M63.1,3.2c0,0,2.6-10.5,25.7,6.3c23,16.8,35.1,24.1,35.1,24.1
			s-21.1-7.9-35.6-14.8C79.8,14.7,71.4,5.6,63.1,3.2z"/>
		<path fill-rule="evenodd" clip-rule="evenodd" d="M60.7,3.2c0,0-2.6-10.5-25.7,6.3C12,26.3,0,33.6,0,33.6s21.1-7.9,35.6-14.8
			C44.1,14.7,52.4,5.6,60.7,3.2z"/>
	</g>
	<path fill-rule="evenodd" clip-rule="evenodd" d="M60.1,26.3h2.9c3,0,5.5,1.6,5.5,3.6v14.9l-0.3,1.5c-0.1-0.2-1.2-0.7-1.3-1
		c-0.1-0.3-0.6,0.9-0.8,0.9c-0.2,0.1-0.6-0.4-0.8-0.9c-0.1-0.5-0.5,0.3-1,0.7c-0.5,0.3-1-0.3-1.1-0.4c-0.1-0.2-0.6,0.4-0.8,0.6
		c-0.2,0.2-1.1-0.6-1.1-0.6s-0.7,0.3-1.1,0.5c-0.4,0.2-1.1-0.7-1.1-0.7c-1.1,1.2-1.3-0.2-1.5-0.1l-1.3,0.6l-0.6-0.7l-1,0.4
		c-0.1-0.2-0.1-0.5-0.1-0.8V29.8C54.7,27.9,57.1,26.3,60.1,26.3z"/>
</g>
</svg>
