<?xml version="1.0" encoding="utf-8"?>
<!-- Generator: Adobe Illustrator 18.0.0, SVG Export Plug-In . SVG Version: 6.00 Build 0)  -->
<!DOCTYPE svg PUBLIC "-//W3C//DTD SVG 1.1//EN" "http://www.w3.org/Graphics/SVG/1.1/DTD/svg11.dtd">
<svg version="1.1" id="Layer_1" xmlns="http://www.w3.org/2000/svg" xmlns:xlink="http://www.w3.org/1999/xlink" x="0px" y="0px"
	 viewBox="0 0 112.5 32.8" enable-background="new 0 0 112.5 32.8" xml:space="preserve">
<g>
	<path fill-rule="evenodd" clip-rule="evenodd" d="M55.9,14.4c0,0-9.8-1.7-25.7,7.6c-16,9.2-23.2-2.8-20.1-10.6
		c3.1-7.8,11.8-3.9,11.5-0.6c-0.3,3.4-2.8,4.2-2.8,4.2c5.3-0.5,9.9-5.8,7-10.9c-2.4-4.2-9.4-5-15-3C-5,6.7-2.5,28.7,12.3,32.1
		c5.2,1.2,11.1,0.4,15.9-0.7c7.1-1.6,14.9-3.9,19.4-3.9C55.5,27.5,55.9,14.4,55.9,14.4z"/>
	<path fill-rule="evenodd" clip-rule="evenodd" d="M56.6,14.4c0,0,9.8-1.7,25.7,7.6c16,9.2,23.2-2.8,20.1-10.6
		C99.4,3.5,90.7,7.4,91,10.8c0.3,3.4,2.8,4.2,2.8,4.2c-5.3-0.5-9.9-5.8-7-10.9c2.4-4.2,9.4-5,15-3c15.7,5.7,13.1,27.6-1.6,31.1
		c-5.2,1.2-11.1,0.4-15.9-0.7c-7.1-1.6-14.9-3.9-19.4-3.9C57,27.5,56.6,14.4,56.6,14.4z"/>
</g>
</svg>
