<?xml version="1.0" encoding="utf-8"?>
<!-- Generator: Adobe Illustrator 18.0.0, SVG Export Plug-In . SVG Version: 6.00 Build 0)  -->
<!DOCTYPE svg PUBLIC "-//W3C//DTD SVG 1.1//EN" "http://www.w3.org/Graphics/SVG/1.1/DTD/svg11.dtd">
<svg version="1.1" id="Layer_1" xmlns="http://www.w3.org/2000/svg" xmlns:xlink="http://www.w3.org/1999/xlink" x="0px" y="0px"
	 viewBox="0 0 91.1 30.9" enable-background="new 0 0 91.1 30.9" xml:space="preserve">
<g>
	<path fill-rule="evenodd" clip-rule="evenodd" d="M45.6,6.7c0,0-9-6.4-21.3-6.7C11.9-0.3,18.4,14.4,14,22.9
		c-2.9,5.6-7.7,4.8-9.7,2.7c-2.2-2.3,0.6-6.9,3.5-4.2c0,0,1.2-1.6-0.6-3.1c-5.4-4.5-12.3,9.1-1.3,12.1c9.9,2.7,13.9-5.9,17-13.4
		c2.4-5.6-0.4-7.5,9-6.6C41.3,11.3,45.6,6.7,45.6,6.7z"/>
	<path fill-rule="evenodd" clip-rule="evenodd" d="M45.6,6.7c0,0,9-6.4,21.3-6.7c12.3-0.3,5.9,14.4,10.3,22.9
		c2.9,5.6,7.7,4.8,9.7,2.7c2.2-2.3-0.6-6.9-3.5-4.2c0,0-1.2-1.6,0.6-3.1c5.4-4.5,12.3,9.1,1.3,12.1c-9.9,2.7-13.9-5.9-17-13.4
		c-2.4-5.6,0.4-7.5-9-6.6C49.8,11.3,45.6,6.7,45.6,6.7z"/>
</g>
</svg>
