<?xml version="1.0" encoding="utf-8"?>
<!-- Generator: Adobe Illustrator 18.0.0, SVG Export Plug-In . SVG Version: 6.00 Build 0)  -->
<!DOCTYPE svg PUBLIC "-//W3C//DTD SVG 1.1//EN" "http://www.w3.org/Graphics/SVG/1.1/DTD/svg11.dtd">
<svg version="1.1" id="Layer_1" xmlns="http://www.w3.org/2000/svg" xmlns:xlink="http://www.w3.org/1999/xlink" x="0px" y="0px"
	 viewBox="0 0 110.9 24.2" enable-background="new 0 0 110.9 24.2" xml:space="preserve">
<g>
	<path fill-rule="evenodd" clip-rule="evenodd" d="M55.4,14.5c14.9-13.8,31.2,1.7,37.8,1.3C104.6,15.2,109.6,0,109.6,0
		c-1.1,4.7-1.7,9-4.3,13c2.4-0.9,5.5-3.3,5.4-6.2c0,0,0.9,3.2-1.3,7.2C101.4,28.7,65.2,26.3,55.4,14.5z"/>
	<path fill-rule="evenodd" clip-rule="evenodd" d="M55.4,14.5c-14.9-13.8-31.2,1.7-37.8,1.3C6.3,15.2,1.3,0,1.3,0
		C2.4,4.7,3,9,5.6,13C3.1,12.1,0,9.7,0.2,6.8c0,0-0.9,3.2,1.3,7.2C9.5,28.7,45.7,26.3,55.4,14.5z"/>
</g>
</svg>
