<?xml version="1.0" encoding="utf-8"?>
<!-- Generator: Adobe Illustrator 18.0.0, SVG Export Plug-In . SVG Version: 6.00 Build 0)  -->
<!DOCTYPE svg PUBLIC "-//W3C//DTD SVG 1.1//EN" "http://www.w3.org/Graphics/SVG/1.1/DTD/svg11.dtd">
<svg version="1.1" id="Layer_1" xmlns="http://www.w3.org/2000/svg" xmlns:xlink="http://www.w3.org/1999/xlink" x="0px" y="0px"
	 viewBox="0 0 75.7 61.6" enable-background="new 0 0 75.7 61.6" xml:space="preserve">
<g>
	<g>
		<path fill-rule="evenodd" clip-rule="evenodd" d="M37.8,0c0,0-17.5,1.3-31.9,4.4C-8.4,7.5,7.8,61.3,7.8,61.3s-1.7-38-0.8-45.8
			C8,7.7,34.6,4.9,34.6,4.9L37.8,0z"/>
		<path fill-rule="evenodd" clip-rule="evenodd" d="M37.8,0c0,0,17.5,1.3,31.9,4.4c14.4,3.1-1.9,56.9-1.9,56.9s1.7-38,0.8-45.8
			C67.7,7.7,41.1,4.9,41.1,4.9L37.8,0z"/>
	</g>
	<polygon fill-rule="evenodd" clip-rule="evenodd" points="29.6,45.5 33.6,59.5 35.8,57 37.1,61.6 39.4,57.8 41.9,59.2 46.1,45.3 	
		"/>
</g>
</svg>
