<?xml version="1.0" encoding="utf-8"?>
<!-- Generator: Adobe Illustrator 18.0.0, SVG Export Plug-In . SVG Version: 6.00 Build 0)  -->
<!DOCTYPE svg PUBLIC "-//W3C//DTD SVG 1.1//EN" "http://www.w3.org/Graphics/SVG/1.1/DTD/svg11.dtd">
<svg version="1.1" id="Layer_1" xmlns="http://www.w3.org/2000/svg" xmlns:xlink="http://www.w3.org/1999/xlink" x="0px" y="0px"
	 viewBox="0 0 42.8 13.9" enable-background="new 0 0 42.8 13.9" xml:space="preserve">
<path fill-rule="evenodd" clip-rule="evenodd" d="M21.4,1.8C7.1-3.9,2.2,5,0,13.9l2.6-0.4l1.2,0.4l0.9-0.5L7,13.9l1.1-0.7l2.5,0.7
	l1-0.4l2.7,0.4l0.8-0.5l1.8,0.5l0.8-0.5l1.4,0.5l1.3-0.5l0.8,0.5l0.9-0.5l1.3,0.5l1.4-0.5l0.8,0.5l1.8-0.5l0.8,0.5l2.7-0.4l1,0.4
	l2.5-0.7l1.1,0.7l2.2-0.5l0.9,0.5l1.2-0.4l2.6,0.4C40.6,5,37.2-3.9,21.4,1.8z"/>
</svg>
