<?xml version="1.0" encoding="utf-8"?>
<!-- Generator: Adobe Illustrator 17.0.0, SVG Export Plug-In . SVG Version: 6.00 Build 0)  -->
<!DOCTYPE svg PUBLIC "-//W3C//DTD SVG 1.1//EN" "http://www.w3.org/Graphics/SVG/1.1/DTD/svg11.dtd">
<svg version="1.1" id="Layer_1" xmlns="http://www.w3.org/2000/svg" xmlns:xlink="http://www.w3.org/1999/xlink" x="0px" y="0px"
	 width="70.608px" height="21.155px" viewBox="0 0 70.608 21.155" enable-background="new 0 0 70.608 21.155" xml:space="preserve">
<path d="M69.756,5.921c-0.54-0.184-1.044-0.599-1.443-1.026c-0.292-0.313-0.425-0.798-0.563-1.228
	C67.223,2.043,66.1,0.76,64.423,0.562c-2.784-0.326-5.564-0.484-8.354-0.503c-13.481-0.088-26.966-0.06-40.448-0.028
	c-2.237,0.005-4.479,0.192-6.71,0.37C5.9,0.64,3.13,1.294,2.329,4.848C2.283,5.053,2.115,5.256,1.952,5.404
	C1.749,5.591,1.492,5.853,1.26,5.852C0.167,5.848,0.054,6.572,0.023,7.382c-0.017,0.51-0.031,1.022-0.017,1.53
	c0.019,0.688,0.286,1.192,0.897,1.619c0.413,0.287,0.73,0.846,0.883,1.346c0.434,1.437,0.781,2.899,1.131,4.359
	c0.484,2.03,1.771,3.229,3.764,3.732c0.191,0.05,0.378,0.122,0.57,0.17c5.259,1.338,10.549,1.221,15.871,0.426
	c2.644-0.395,4.51-1.699,5.535-4.183c0.174-0.419,0.423-0.805,0.601-1.221c1.196-2.786,2.408-5.566,3.561-8.37
	c0.48-1.172,1.232-1.724,2.524-1.719c1.273,0.004,2.013,0.594,2.433,1.726c0.167,0.451,0.34,0.901,0.536,1.341
	c1.288,2.9,2.593,5.792,3.872,8.696c0.958,2.177,2.675,3.322,4.964,3.643c2.188,0.307,6.591,0.707,6.596,0.66
	c0.823,0,1.648,0.032,2.47-0.006c2.928-0.133,5.823-0.429,8.597-1.486c1.279-0.487,2.194-1.3,2.575-2.625
	c0.493-1.713,0.917-3.448,1.429-5.157c0.137-0.459,0.376-1.04,0.745-1.244c0.873-0.483,1.053-1.208,1.048-2.06
	c-0.004-0.622-0.07-1.246-0.125-1.866C70.443,6.252,70.214,6.077,69.756,5.921z M31.121,6.696
	c-1.012,4.199-2.845,8.063-5.367,11.571c-0.358,0.497-1.066,0.926-1.675,1.029c-5.23,0.885-10.472,1.183-15.711,0.012
	c-2.897-0.648-4.617-2.193-4.771-5.384C3.458,11.058,3.17,8.22,3.852,5.379C4.354,3.283,5.502,1.9,7.727,1.691
	c3.579-0.334,17.065-0.414,20.165,0.068C30.655,2.189,31.78,3.963,31.121,6.696z M66.732,15.408
	c-0.132,1.45-0.938,2.421-2.251,3.057c-1.793,0.87-3.696,1.313-5.651,1.441c-3.941,0.258-7.884,0.179-11.795-0.451
	c-0.915-0.146-1.75-0.455-2.31-1.279c-2.423-3.572-4.286-7.411-5.279-11.618c-0.594-2.512,0.525-4.359,3.069-4.76
	C45.67,1.3,58.874,1.309,62.262,1.569c0.476,0.037,0.938,0.21,1.41,0.309c1.412,0.294,2.377,1.149,2.72,2.515
	c0.379,1.501,0.774,3.047,0.794,4.579C67.216,11.115,66.927,13.265,66.732,15.408z"/>
</svg>
